<?xml version="1.0" encoding="utf-8"?>
<svg xmlns="http://www.w3.org/2000/svg" xmlns:xlink="http://www.w3.org/1999/xlink" style="margin: auto; background: none; display: block; shape-rendering: auto;" width="204px" height="204px" viewBox="0 0 100 100" preserveAspectRatio="xMidYMid">
<g transform="rotate(0 50 50)">
  <rect x="45" y="22.5" rx="5" ry="6.5" width="10" height="13" fill="#fe718d">
    <animate attributeName="opacity" values="1;0" keyTimes="0;1" dur="0.6578947368421053s" begin="-0.5921052631578948s" repeatCount="indefinite"></animate>
  </rect>
</g><g transform="rotate(36 50 50)">
  <rect x="45" y="22.5" rx="5" ry="6.5" width="10" height="13" fill="#f47e60">
    <animate attributeName="opacity" values="1;0" keyTimes="0;1" dur="0.6578947368421053s" begin="-0.5263157894736842s" repeatCount="indefinite"></animate>
  </rect>
</g><g transform="rotate(72 50 50)">
  <rect x="45" y="22.5" rx="5" ry="6.5" width="10" height="13" fill="#f8b26a">
    <animate attributeName="opacity" values="1;0" keyTimes="0;1" dur="0.6578947368421053s" begin="-0.46052631578947373s" repeatCount="indefinite"></animate>
  </rect>
</g><g transform="rotate(108 50 50)">
  <rect x="45" y="22.5" rx="5" ry="6.5" width="10" height="13" fill="#abbd81">
    <animate attributeName="opacity" values="1;0" keyTimes="0;1" dur="0.6578947368421053s" begin="-0.39473684210526316s" repeatCount="indefinite"></animate>
  </rect>
</g><g transform="rotate(144 50 50)">
  <rect x="45" y="22.5" rx="5" ry="6.5" width="10" height="13" fill="#849b87">
    <animate attributeName="opacity" values="1;0" keyTimes="0;1" dur="0.6578947368421053s" begin="-0.32894736842105265s" repeatCount="indefinite"></animate>
  </rect>
</g><g transform="rotate(180 50 50)">
  <rect x="45" y="22.5" rx="5" ry="6.5" width="10" height="13" fill="#6492ac">
    <animate attributeName="opacity" values="1;0" keyTimes="0;1" dur="0.6578947368421053s" begin="-0.2631578947368421s" repeatCount="indefinite"></animate>
  </rect>
</g><g transform="rotate(216 50 50)">
  <rect x="45" y="22.5" rx="5" ry="6.5" width="10" height="13" fill="#637cb5">
    <animate attributeName="opacity" values="1;0" keyTimes="0;1" dur="0.6578947368421053s" begin="-0.19736842105263158s" repeatCount="indefinite"></animate>
  </rect>
</g><g transform="rotate(252 50 50)">
  <rect x="45" y="22.5" rx="5" ry="6.5" width="10" height="13" fill="#6a63b6">
    <animate attributeName="opacity" values="1;0" keyTimes="0;1" dur="0.6578947368421053s" begin="-0.13157894736842105s" repeatCount="indefinite"></animate>
  </rect>
</g><g transform="rotate(288 50 50)">
  <rect x="45" y="22.5" rx="5" ry="6.5" width="10" height="13" fill="#fe718d">
    <animate attributeName="opacity" values="1;0" keyTimes="0;1" dur="0.6578947368421053s" begin="-0.06578947368421052s" repeatCount="indefinite"></animate>
  </rect>
</g><g transform="rotate(324 50 50)">
  <rect x="45" y="22.5" rx="5" ry="6.5" width="10" height="13" fill="#f47e60">
    <animate attributeName="opacity" values="1;0" keyTimes="0;1" dur="0.6578947368421053s" begin="0s" repeatCount="indefinite"></animate>
  </rect>
</g>
<!-- [ldio] generated by https://loading.io/ --></svg>